<?xml version="1.0" standalone="no"?>
<svg viewBox="0 0 200 200" xmlns="http://www.w3.org/2000/svg">
  <path fill="#24A148" d="M43.3,-56.7C57.8,-58.1,72.3,-48.9,67.9,-37.3C63.4,-25.7,39.9,-11.7,34.4,2.7C28.9,17.1,41.4,31.9,41.7,41.9C42,51.9,30.2,57.1,20.3,52.2C10.5,47.3,2.7,32.4,-11.2,31.4C-25.1,30.4,-45.1,43.4,-53.1,41.8C-61,40.2,-56.9,23.9,-58.2,8.9C-59.5,-6,-66.1,-19.6,-60.1,-25.3C-54.1,-30.9,-35.5,-28.7,-23.4,-28.3C-11.3,-28,-5.7,-29.7,4.4,-36.5C14.4,-43.3,28.8,-55.3,43.3,-56.7Z" transform="translate(100 100)" />
</svg>
